<svg width="108" height="16" viewBox="0 0 108 16" fill="none" xmlns="http://www.w3.org/2000/svg">
<g clip-path="url(#clip0_13_280)">
<path d="M0.884551 8.2669L3.25788 10.0002L2.35655 12.7916C2.21089 13.2245 2.20905 13.6929 2.35129 14.127C2.49353 14.561 2.77225 14.9375 3.14588 15.2002C3.51312 15.4714 3.95815 15.6167 4.41465 15.6144C4.87116 15.6121 5.31471 15.4624 5.67922 15.1876L7.99989 13.4796L10.3212 15.1856C10.6878 15.4552 11.1304 15.6017 11.5855 15.6039C12.0405 15.6061 12.4846 15.464 12.8537 15.1979C13.2229 14.9319 13.4982 14.5556 13.6401 14.1232C13.7819 13.6908 13.783 13.2246 13.6432 12.7916L12.7419 10.0002L15.1152 8.2669C15.4813 7.99924 15.7535 7.62273 15.8928 7.19116C16.0321 6.75959 16.0315 6.29502 15.891 5.86383C15.7505 5.43263 15.4774 5.05685 15.1106 4.79017C14.7438 4.52349 14.3021 4.37955 13.8486 4.3789H10.9332L10.0486 1.62157C9.90943 1.18754 9.63606 0.80891 9.26786 0.540278C8.89967 0.271645 8.45566 0.126892 7.99989 0.126892C7.54411 0.126892 7.10011 0.271645 6.73191 0.540278C6.36371 0.80891 6.09034 1.18754 5.95122 1.62157L5.06655 4.3789H2.15388C1.70038 4.37955 1.25868 4.52349 0.891871 4.79017C0.525063 5.05685 0.251912 5.43263 0.111432 5.86383C-0.0290475 6.29502 -0.0296693 6.75959 0.109656 7.19116C0.24898 7.62273 0.521125 7.99924 0.887218 8.2669H0.884551Z" fill="#FFE605"/>
</g>
<g clip-path="url(#clip1_13_280)">
<path d="M23.8846 8.2669L26.2579 10.0002L25.3566 12.7916C25.2109 13.2245 25.209 13.6929 25.3513 14.127C25.4935 14.561 25.7722 14.9375 26.1459 15.2002C26.5131 15.4714 26.9581 15.6167 27.4147 15.6144C27.8712 15.6121 28.3147 15.4624 28.6792 15.1876L30.9999 13.4796L33.3212 15.1856C33.6878 15.4552 34.1304 15.6017 34.5855 15.6039C35.0405 15.6061 35.4846 15.464 35.8537 15.1979C36.2229 14.9319 36.4982 14.5556 36.6401 14.1232C36.7819 13.6908 36.783 13.2246 36.6432 12.7916L35.7419 10.0002L38.1152 8.2669C38.4813 7.99924 38.7535 7.62273 38.8928 7.19116C39.0321 6.75959 39.0315 6.29502 38.891 5.86383C38.7505 5.43263 38.4774 5.05685 38.1106 4.79017C37.7438 4.52349 37.3021 4.37955 36.8486 4.3789H33.9332L33.0486 1.62157C32.9094 1.18754 32.6361 0.80891 32.2679 0.540278C31.8997 0.271645 31.4557 0.126892 30.9999 0.126892C30.5441 0.126892 30.1001 0.271645 29.7319 0.540278C29.3637 0.80891 29.0903 1.18754 28.9512 1.62157L28.0666 4.3789H25.1539C24.7004 4.37955 24.2587 4.52349 23.8919 4.79017C23.5251 5.05685 23.2519 5.43263 23.1114 5.86383C22.971 6.29502 22.9703 6.75959 23.1097 7.19116C23.249 7.62273 23.5211 7.99924 23.8872 8.2669H23.8846Z" fill="#FFE605"/>
</g>
<g clip-path="url(#clip2_13_280)">
<path d="M46.8846 8.2669L49.2579 10.0002L48.3566 12.7916C48.2109 13.2245 48.209 13.6929 48.3513 14.127C48.4935 14.561 48.7722 14.9375 49.1459 15.2002C49.5131 15.4714 49.9581 15.6167 50.4147 15.6144C50.8712 15.6121 51.3147 15.4624 51.6792 15.1876L53.9999 13.4796L56.3212 15.1856C56.6878 15.4552 57.1304 15.6017 57.5855 15.6039C58.0405 15.6061 58.4846 15.464 58.8537 15.1979C59.2229 14.9319 59.4982 14.5556 59.6401 14.1232C59.7819 13.6908 59.783 13.2246 59.6432 12.7916L58.7419 10.0002L61.1152 8.2669C61.4813 7.99924 61.7535 7.62273 61.8928 7.19116C62.0321 6.75959 62.0315 6.29502 61.891 5.86383C61.7505 5.43263 61.4774 5.05685 61.1106 4.79017C60.7438 4.52349 60.3021 4.37955 59.8486 4.3789H56.9332L56.0486 1.62157C55.9094 1.18754 55.6361 0.80891 55.2679 0.540278C54.8997 0.271645 54.4557 0.126892 53.9999 0.126892C53.5441 0.126892 53.1001 0.271645 52.7319 0.540278C52.3637 0.80891 52.0903 1.18754 51.9512 1.62157L51.0666 4.3789H48.1539C47.7004 4.37955 47.2587 4.52349 46.8919 4.79017C46.5251 5.05685 46.2519 5.43263 46.1114 5.86383C45.971 6.29502 45.9703 6.75959 46.1097 7.19116C46.249 7.62273 46.5211 7.99924 46.8872 8.2669H46.8846Z" fill="#FFE605"/>
</g>
<g clip-path="url(#clip3_13_280)">
<path d="M74.568 15.6249C74.0592 15.6227 73.5642 15.4593 73.154 15.1583C72.7348 14.8634 72.422 14.441 72.2621 13.9541C72.1022 13.4671 72.1038 12.9416 72.2666 12.4556L73.0466 10.0429L70.9933 8.54159C70.5816 8.24079 70.2756 7.81748 70.119 7.33222C69.9625 6.84697 69.9634 6.32463 70.1217 5.83994C70.2801 5.35526 70.5876 4.93306 71.0004 4.63376C71.4132 4.33446 71.9101 4.17339 72.42 4.17359H74.9333L75.6966 1.79359C75.8533 1.30622 76.1606 0.881141 76.5743 0.57958C76.988 0.27802 77.4867 0.11554 77.9986 0.11554C78.5106 0.11554 79.0093 0.27802 79.423 0.57958C79.8367 0.881141 80.144 1.30622 80.3006 1.79359L81.0666 4.17359H83.58C84.0898 4.17353 84.5866 4.3347 84.9993 4.63405C85.412 4.9334 85.7194 5.3556 85.8776 5.84026C86.0358 6.32491 86.0367 6.84719 85.8802 7.33238C85.7236 7.81758 85.4176 8.24083 85.006 8.54159L82.9533 10.0429L83.7333 12.4556C83.8906 12.9423 83.8894 13.4663 83.73 13.9523C83.5706 14.4382 83.2612 14.8611 82.8462 15.1601C82.4313 15.4591 81.9322 15.6188 81.4207 15.6162C80.9093 15.6136 80.4118 15.4488 80 15.1456L78 13.6749L76 15.1463C75.5861 15.4549 75.0842 15.6227 74.568 15.6249ZM72.42 6.17359C72.332 6.17358 72.2462 6.20139 72.175 6.25304C72.1037 6.30469 72.0506 6.37753 72.0233 6.46117C71.9959 6.5448 71.9957 6.63494 72.0226 6.71871C72.0496 6.80248 72.1023 6.87559 72.1733 6.92759L74.8106 8.85493C74.9805 8.9791 75.1068 9.15367 75.1717 9.35379C75.2365 9.55392 75.2366 9.76941 75.172 9.96959L74.172 13.0696C74.1442 13.1537 74.1439 13.2444 74.1712 13.3287C74.1984 13.4129 74.2517 13.4864 74.3234 13.5383C74.3951 13.5903 74.4815 13.6181 74.57 13.6177C74.6586 13.6173 74.7447 13.5888 74.816 13.5363L77.4086 11.6289C77.5804 11.5025 77.7881 11.4344 78.0013 11.4344C78.2145 11.4344 78.4222 11.5025 78.594 11.6289L81.1866 13.5356C81.2578 13.5886 81.3441 13.6176 81.4328 13.6182C81.5216 13.6188 81.6082 13.591 81.6801 13.5389C81.752 13.4868 81.8054 13.4131 81.8324 13.3286C81.8595 13.2441 81.8589 13.1531 81.8306 13.0689L80.8306 9.96893C80.766 9.76874 80.7661 9.55325 80.8309 9.35313C80.8958 9.153 81.0221 8.97843 81.192 8.85426L83.8286 6.92693C83.8996 6.87496 83.9523 6.80191 83.9792 6.71821C84.0062 6.6345 84.006 6.54442 83.9788 6.46082C83.9515 6.37721 83.8985 6.30436 83.8274 6.25266C83.7562 6.20097 83.6706 6.17306 83.5826 6.17293H80.3333C80.1215 6.17288 79.9152 6.10558 79.7441 5.98073C79.573 5.85589 79.446 5.67994 79.3813 5.47826L78.4 2.40426C78.3729 2.32013 78.3199 2.24674 78.2485 2.19468C78.1771 2.14262 78.091 2.11457 78.0026 2.11457C77.9143 2.11457 77.8282 2.14262 77.7568 2.19468C77.6854 2.24674 77.6323 2.32013 77.6053 2.40426L76.6166 5.47893C76.5521 5.68029 76.4253 5.856 76.2546 5.98081C76.084 6.10563 75.8781 6.17312 75.6666 6.17359H72.42Z" fill="#B0B4B7"/>
</g>
<g clip-path="url(#clip4_13_280)">
<path d="M96.568 15.6249C96.0592 15.6227 95.5642 15.4593 95.154 15.1583C94.7348 14.8634 94.422 14.441 94.2621 13.9541C94.1022 13.4671 94.1038 12.9416 94.2666 12.4556L95.0466 10.0429L92.9933 8.54159C92.5816 8.24079 92.2756 7.81748 92.119 7.33222C91.9625 6.84697 91.9634 6.32463 92.1217 5.83994C92.2801 5.35526 92.5876 4.93306 93.0004 4.63376C93.4132 4.33446 93.9101 4.17339 94.42 4.17359H96.9333L97.6966 1.79359C97.8533 1.30622 98.1606 0.881141 98.5743 0.57958C98.988 0.27802 99.4867 0.11554 99.9986 0.11554C100.511 0.11554 101.009 0.27802 101.423 0.57958C101.837 0.881141 102.144 1.30622 102.301 1.79359L103.067 4.17359H105.58C106.09 4.17353 106.587 4.3347 106.999 4.63405C107.412 4.9334 107.719 5.3556 107.878 5.84026C108.036 6.32491 108.037 6.84719 107.88 7.33238C107.724 7.81758 107.418 8.24083 107.006 8.54159L104.953 10.0429L105.733 12.4556C105.891 12.9423 105.889 13.4663 105.73 13.9523C105.571 14.4382 105.261 14.8611 104.846 15.1601C104.431 15.4591 103.932 15.6188 103.421 15.6162C102.909 15.6136 102.412 15.4488 102 15.1456L100 13.6749L98 15.1463C97.5861 15.4549 97.0842 15.6227 96.568 15.6249ZM94.42 6.17359C94.332 6.17358 94.2462 6.20139 94.175 6.25304C94.1037 6.30469 94.0506 6.37753 94.0233 6.46117C93.9959 6.5448 93.9957 6.63494 94.0226 6.71871C94.0496 6.80248 94.1023 6.87559 94.1733 6.92759L96.8106 8.85493C96.9805 8.9791 97.1068 9.15367 97.1717 9.35379C97.2365 9.55392 97.2366 9.76941 97.172 9.96959L96.172 13.0696C96.1442 13.1537 96.1439 13.2444 96.1712 13.3287C96.1984 13.4129 96.2517 13.4864 96.3234 13.5383C96.3951 13.5903 96.4815 13.6181 96.57 13.6177C96.6586 13.6173 96.7447 13.5888 96.816 13.5363L99.4086 11.6289C99.5804 11.5025 99.7881 11.4344 100.001 11.4344C100.215 11.4344 100.422 11.5025 100.594 11.6289L103.187 13.5356C103.258 13.5886 103.344 13.6176 103.433 13.6182C103.522 13.6188 103.608 13.591 103.68 13.5389C103.752 13.4868 103.805 13.4131 103.832 13.3286C103.86 13.2441 103.859 13.1531 103.831 13.0689L102.831 9.96893C102.766 9.76874 102.766 9.55325 102.831 9.35313C102.896 9.153 103.022 8.97843 103.192 8.85426L105.829 6.92693C105.9 6.87496 105.952 6.80191 105.979 6.71821C106.006 6.6345 106.006 6.54442 105.979 6.46082C105.951 6.37721 105.898 6.30436 105.827 6.25266C105.756 6.20097 105.671 6.17306 105.583 6.17293H102.333C102.122 6.17288 101.915 6.10558 101.744 5.98073C101.573 5.85589 101.446 5.67994 101.381 5.47826L100.4 2.40426C100.373 2.32013 100.32 2.24674 100.248 2.19468C100.177 2.14262 100.091 2.11457 100.003 2.11457C99.9143 2.11457 99.8282 2.14262 99.7568 2.19468C99.6854 2.24674 99.6323 2.32013 99.6053 2.40426L98.6166 5.47893C98.5521 5.68029 98.4253 5.856 98.2546 5.98081C98.084 6.10563 97.8781 6.17312 97.6666 6.17359H94.42Z" fill="#B0B4B7"/>
</g>
<defs>
<clipPath id="clip0_13_280">
<rect width="16" height="16" fill="white"/>
</clipPath>
<clipPath id="clip1_13_280">
<rect width="16" height="16" fill="white" transform="translate(23)"/>
</clipPath>
<clipPath id="clip2_13_280">
<rect width="16" height="16" fill="white" transform="translate(46)"/>
</clipPath>
<clipPath id="clip3_13_280">
<rect width="16" height="16" fill="white" transform="translate(70)"/>
</clipPath>
<clipPath id="clip4_13_280">
<rect width="16" height="16" fill="white" transform="translate(92)"/>
</clipPath>
</defs>
</svg>
